<svg
  xmlns="http://www.w3.org/2000/svg"
  xmlns:xlink="http://www.w3.org/1999/xlink"
  version="1.1"
  height="50"
  viewBox="0 0 100 125"
  xml:space="preserve"
>
  <path stroke="black" fill="white" d="M83.702,17.438H57.451c4.122-1.715,6.193-6.385,4.647-10.623C60.509,2.458,55.7,0.199,51.343,1.787  c-4.38,1.597-6.607,6.422-5.018,10.779c0.836,2.294,2.569,3.997,4.657,4.871H30.87c-1.103,0-2.154,0.468-2.891,1.288L15.682,32.389  c-1.437,1.597-1.307,4.056,0.289,5.493c0.743,0.669,1.673,0.999,2.601,0.999c1.064,0,2.124-0.435,2.892-1.288l11.138-12.376h5.484  l-4.939,13.265c-0.911,2.277-2.201,5.124-0.835,8.729l4.333,12.314l-11.665,11.8c-1.268,1.309-1.816,3.256-1.214,5.115  c0.844,2.669,3.686,4.124,6.354,3.278c0.833-0.253,1.56-0.723,2.115-1.31l14.234-14.328c0.833-0.892,1.744-2.486,1.236-4.071  l-3.114-8.466l15.511,6.205l4.349,18.618c0.041,0.112,0.06,0.234,0.102,0.348c0.845,2.669,3.694,4.146,6.363,3.301  c2.503-0.81,3.958-3.369,3.414-5.918l-4.904-21.265c-0.033-0.091-0.044-0.189-0.077-0.28c-0.476-1.445-1.512-2.529-2.794-3.089  l-13.218-6.886l6.112-17.364h24.251c2.148,0,3.89-1.741,3.89-3.89S85.851,17.438,83.702,17.438z"/>
  <g stroke="black" fill="white">
    <path d="M44.449,81.525c1.116-1.352,2.805-2.215,4.695-2.215c1.897,0,3.591,0.869,4.707,2.231l8.311,0.014   c-1.657-5.624-6.856-9.732-13.017-9.732c-6.146,0-11.335,4.086-13.006,9.688L44.449,81.525z"/>
    <path d="M53.745,89.366c-1.115,1.291-2.761,2.111-4.601,2.111c-1.848,0-3.5-0.827-4.616-2.127l-8.373-0.014   c1.69,5.572,6.864,9.629,12.989,9.629c6.107,0,11.272-4.035,12.975-9.584L53.745,89.366z"/>
  </g>
  <path stroke="black" fill="white" d="M79.442,87.733c-0.001,0-0.003,0-0.004,0L18.843,87.63c-1.235-0.002-2.234-1.005-2.232-2.24  c0.002-1.234,1.003-2.232,2.236-2.232c0.001,0,0.003,0,0.004,0l60.595,0.104c1.235,0.002,2.234,1.005,2.232,2.24  C81.676,86.735,80.675,87.733,79.442,87.733z"/>
</svg>