<?xml version="1.0" encoding="UTF-8" standalone="no"?>
<svg
   version="1.1"
   viewBox="0 0 100 100"
   xml:space="preserve"
   xmlns="http://www.w3.org/2000/svg"
  >
  <rect
    style="fill:#000000;stroke:none;"
    width="21.636724"
    height="60.582829"
    x="39.60537"
    y="26.082993"
  />
  <path
    d="M 98.760951,79.755784 57.874092,11.469353 C 56.224118,8.7193959 53.286664,7.081922 49.999216,7.081922 c -3.287449,0 -6.237402,1.6374739 -7.874877,4.387431 L 1.2374793,79.755784 c -1.64997412,2.749956 -1.64997412,6.024905 0,8.774862 1.6499741,2.749958 4.5874287,4.387432 7.8748772,4.387432 H 90.898575 c 3.287449,0 6.224902,-1.637474 7.874877,-4.387432 1.637478,-2.749957 1.637478,-6.037405 -0.0125,-8.774862 z M 49.999216,76.75583 c -2.187466,0 -3.974938,-1.774972 -3.974938,-3.974937 0,-2.199965 1.774972,-3.974938 3.974938,-3.974938 2.199965,0 3.974937,1.774973 3.974937,3.974938 0,2.199965 -1.787472,3.974937 -3.974937,3.974937 z m 1.849971,-13.537287 c -0.0625,0.974985 -0.874986,1.724973 -1.849971,1.724973 -0.974985,0 -1.787472,-0.749988 -1.849971,-1.724973 l -2.112467,-30.63702 c 0,-2.187466 1.774972,-3.974938 3.974937,-3.974938 2.199965,0 3.974938,1.774973 3.974938,3.974938 z"
  />
</svg>
